<svg width="26" height="24" viewBox="0 0 26 24" fill="none" xmlns="http://www.w3.org/2000/svg">
<path d="M1.40625 23.25C1.17709 23.25 0.968755 23.1929 0.781255 23.0788C0.593755 22.9646 0.447921 22.8133 0.343755 22.625C0.239588 22.4367 0.182505 22.2333 0.172505 22.015C0.162505 21.7967 0.219588 21.5833 0.343755 21.375L11.9063 1.375C12.0313 1.16667 12.1929 1.01042 12.3913 0.90625C12.5896 0.802083 12.7925 0.75 13 0.75C13.2075 0.75 13.4108 0.802083 13.61 0.90625C13.8092 1.01042 13.9704 1.16667 14.0938 1.375L25.6563 21.375C25.7813 21.5833 25.8388 21.7971 25.8288 22.0163C25.8188 22.2354 25.7613 22.4383 25.6563 22.625C25.5513 22.8117 25.4054 22.9629 25.2188 23.0788C25.0321 23.1946 24.8238 23.2517 24.5938 23.25H1.40625ZM13 19.5C13.3542 19.5 13.6513 19.38 13.8913 19.14C14.1313 18.9 14.2508 18.6033 14.25 18.25C14.2492 17.8967 14.1292 17.6 13.89 17.36C13.6508 17.12 13.3542 17 13 17C12.6458 17 12.3492 17.12 12.11 17.36C11.8708 17.6 11.7508 17.8967 11.75 18.25C11.7492 18.6033 11.8692 18.9004 12.11 19.1412C12.3508 19.3821 12.6475 19.5017 13 19.5ZM13 15.75C13.3542 15.75 13.6513 15.63 13.8913 15.39C14.1313 15.15 14.2508 14.8533 14.25 14.5V10.75C14.25 10.3958 14.13 10.0992 13.89 9.86C13.65 9.62083 13.3533 9.50083 13 9.5C12.6467 9.49917 12.35 9.61917 12.11 9.86C11.87 10.1008 11.75 10.3975 11.75 10.75V14.5C11.75 14.8542 11.87 15.1513 12.11 15.3913C12.35 15.6313 12.6467 15.7508 13 15.75Z" fill="#E74057"/>
</svg>